<svg 
 xmlns="http://www.w3.org/2000/svg"
 xmlns:xlink="http://www.w3.org/1999/xlink"
 width="17px" height="16px">
<path fill-rule="evenodd"  opacity="0.8" fill="rgb(68, 68, 68)"
 d="M16.106,14.752 L15.127,15.731 C14.857,16.001 14.419,16.001 14.148,15.731 L9.508,11.086 C8.791,11.428 7.640,11.932 6.730,11.932 C3.461,11.932 0.940,8.969 0.940,5.700 C0.940,2.430 3.461,-0.008 6.730,-0.008 C10.000,-0.008 12.963,2.430 12.963,5.700 C12.963,7.055 12.227,8.534 11.514,9.462 L16.106,13.773 C16.376,14.043 16.376,14.481 16.106,14.752 ZM6.986,1.916 C4.770,1.916 2.974,3.712 2.974,5.928 C2.974,8.144 4.770,9.941 6.986,9.941 C9.202,9.941 10.998,8.144 10.998,5.928 C10.998,3.712 9.202,1.916 6.986,1.916 Z"/>
</svg>