<svg 
 xmlns="http://www.w3.org/2000/svg"
 xmlns:xlink="http://www.w3.org/1999/xlink"
 width="114px" height="17px">
<defs>
<filter id="Filter_0">
    <feFlood flood-color="rgb(153, 153, 153)" flood-opacity="1" result="floodOut" />
    <feComposite operator="atop" in="floodOut" in2="SourceGraphic" result="compOut" />
    <feBlend mode="normal" in="compOut" in2="SourceGraphic" />
</filter>
<filter id="Filter_1">
    <feFlood flood-color="rgb(153, 153, 153)" flood-opacity="1" result="floodOut" />
    <feComposite operator="atop" in="floodOut" in2="SourceGraphic" result="compOut" />
    <feBlend mode="normal" in="compOut" in2="SourceGraphic" />
</filter>
<filter id="Filter_2">
    <feFlood flood-color="rgb(153, 153, 153)" flood-opacity="1" result="floodOut" />
    <feComposite operator="atop" in="floodOut" in2="SourceGraphic" result="compOut" />
    <feBlend mode="normal" in="compOut" in2="SourceGraphic" />
</filter>
<filter id="Filter_3">
    <feFlood flood-color="rgb(153, 153, 153)" flood-opacity="1" result="floodOut" />
    <feComposite operator="atop" in="floodOut" in2="SourceGraphic" result="compOut" />
    <feBlend mode="normal" in="compOut" in2="SourceGraphic" />
</filter>

</defs>
<g filter="url(#Filter_0)">
<path fill-rule="evenodd"  fill="rgb(0, 0, 0)"
 d="M106.203,11.409 C106.071,11.930 105.937,12.476 105.799,13.009 C105.662,13.535 105.542,14.069 105.343,14.552 C105.014,15.354 104.595,16.127 104.047,16.754 C103.682,17.170 103.759,17.004 103.650,16.981 C103.566,16.964 103.558,16.883 103.542,16.766 C103.453,16.130 103.514,15.394 103.547,14.679 C103.585,13.864 103.759,13.186 103.920,12.509 C104.228,11.220 104.521,9.955 104.831,8.657 C104.852,8.571 104.907,8.428 104.888,8.379 C104.747,8.018 104.656,7.695 104.616,7.316 C104.570,6.882 104.605,6.476 104.704,6.102 C104.880,5.441 105.284,4.854 105.906,4.641 C106.302,4.505 106.741,4.566 107.007,4.723 C107.281,4.884 107.469,5.140 107.557,5.501 C107.651,5.886 107.582,6.346 107.506,6.684 C107.337,7.445 107.114,8.017 106.912,8.752 C106.812,9.117 106.698,9.491 106.792,9.885 C106.878,10.246 107.069,10.494 107.330,10.681 C107.599,10.875 107.919,10.981 108.360,10.966 C109.140,10.939 109.681,10.448 110.043,9.986 C110.622,9.245 110.973,8.246 111.106,7.057 C111.148,6.674 111.180,6.233 111.150,5.798 C111.095,4.996 110.840,4.350 110.435,3.850 C110.050,3.374 109.505,2.994 108.841,2.781 C108.183,2.569 107.272,2.499 106.463,2.635 C104.993,2.884 103.955,3.707 103.344,4.843 C103.024,5.438 102.813,6.123 102.813,6.975 C102.813,7.631 102.978,8.140 103.243,8.537 C103.328,8.663 103.452,8.767 103.534,8.910 C103.651,9.114 103.516,9.417 103.458,9.638 C103.389,9.903 103.381,10.270 103.066,10.277 C102.936,10.279 102.772,10.185 102.661,10.125 C101.834,9.674 101.331,8.854 101.124,7.791 C100.999,7.145 100.999,6.391 101.124,5.767 C101.245,5.163 101.470,4.606 101.719,4.154 C102.236,3.215 102.992,2.464 103.914,1.927 C104.622,1.515 105.421,1.225 106.393,1.086 C106.716,1.040 107.050,1.020 107.412,1.004 C108.470,0.954 109.432,1.191 110.157,1.510 C110.922,1.847 111.532,2.295 112.048,2.851 C112.579,3.422 112.967,4.088 113.212,4.919 C113.340,5.351 113.464,5.814 113.464,6.348 C113.464,6.884 113.349,7.356 113.269,7.829 C112.968,9.596 112.115,11.042 110.834,11.864 C110.523,12.064 110.147,12.248 109.720,12.370 C109.297,12.492 108.814,12.583 108.297,12.547 C107.795,12.513 107.384,12.379 107.039,12.187 C106.696,11.996 106.408,11.762 106.203,11.409 Z"/>
</g>
<g filter="url(#Filter_1)">
<path fill-rule="evenodd"  fill="rgb(0, 0, 0)"
 d="M78.834,10.242 C77.873,11.646 76.553,13.334 75.400,14.330 C74.564,15.052 73.019,16.170 71.802,15.965 C68.667,15.438 69.335,7.729 67.223,5.990 C66.257,5.709 65.792,7.196 65.261,6.317 C64.427,5.620 66.065,4.402 66.896,3.701 C67.924,2.833 69.136,1.598 70.494,2.135 C73.138,3.181 71.243,9.517 73.764,10.896 C75.068,9.846 76.528,8.111 76.217,5.990 C75.970,5.282 74.776,5.507 74.091,5.663 C74.056,2.427 80.433,-0.052 80.960,4.355 C81.246,7.053 78.834,10.242 78.834,10.242 Z"/>
</g>
<g filter="url(#Filter_2)">
<path fill-rule="evenodd"  fill="rgb(0, 0, 0)"
 d="M44.493,1.004 C44.493,1.926 44.493,3.576 44.493,3.576 C44.493,3.576 42.601,3.387 42.127,4.114 C41.867,4.511 42.021,5.674 41.998,6.509 C42.824,6.509 43.683,6.509 44.509,6.509 C44.296,7.485 44.144,8.147 43.988,8.992 C43.273,8.992 41.984,8.992 41.984,8.992 L41.984,16.982 C41.984,16.982 39.619,16.982 38.507,16.982 C38.507,14.519 38.506,11.645 38.507,9.023 C37.966,9.023 37.567,9.023 37.027,9.023 C37.027,8.102 37.027,7.430 37.027,6.509 C37.551,6.509 37.966,6.509 38.490,6.509 C38.565,4.670 38.594,2.849 39.505,1.922 C40.530,0.879 41.507,1.004 44.493,1.004 Z"/>
</g>
<g filter="url(#Filter_3)">
<path fill-rule="evenodd"  fill="rgb(0, 0, 0)"
 d="M16.488,3.879 C16.411,4.480 15.540,5.082 15.012,5.539 C15.532,13.219 6.824,18.010 0.497,14.118 C2.272,14.132 4.270,13.645 5.325,12.642 C3.791,12.394 2.703,11.698 2.281,10.336 C2.731,10.294 3.362,10.433 3.665,10.244 C2.261,9.711 1.151,8.883 1.082,7.015 C1.582,7.068 1.842,7.362 2.466,7.292 C1.558,6.710 0.521,4.496 1.451,2.864 C3.099,4.691 5.155,6.109 8.370,6.370 C7.572,2.978 12.067,0.878 14.089,3.325 C14.875,3.158 15.538,2.867 16.211,2.587 C15.935,3.357 15.375,3.843 14.827,4.340 C15.423,4.229 16.053,4.151 16.488,3.879 Z"/>
</g>
</svg>